<svg width="56" height="55" viewBox="0 0 56 55" fill="none" xmlns="http://www.w3.org/2000/svg">
<path d="M27.5002 55C12.3377 55 0 42.6628 0 27.5002C0 12.3377 12.3377 0 27.5002 0C32.7728 0 37.9025 1.50238 42.335 4.34739C43.2052 4.9077 43.4602 6.06767 42.8999 6.94017C42.3378 7.81267 41.1801 8.0649 40.3076 7.50506C36.4825 5.04732 32.0527 3.75001 27.5002 3.75001C14.4049 3.75001 3.75001 14.4049 3.75001 27.5002C3.75001 40.5951 14.4049 51.25 27.5002 51.25C40.5951 51.25 51.25 40.5951 51.25 27.5002C51.25 26.7174 51.2124 25.9425 51.1401 25.1803C51.0403 24.1476 51.7952 23.2325 52.8252 23.1327C53.8602 23.0375 54.7725 23.7878 54.8727 24.8177C54.9574 25.7003 55 26.5952 55 27.5002C55 42.6628 42.6628 55 27.5002 55Z" fill="#41A239"/>
<path d="M26.9694 37C26.4953 37 26.0207 36.8188 25.6602 36.4546L14.5428 25.2943C13.8191 24.5673 13.8191 23.3893 14.5428 22.6628C15.2666 21.9362 16.4401 21.9362 17.1639 22.6628L26.9721 32.5088L52.8357 6.54494C53.5599 5.81835 54.7334 5.81835 55.4572 6.54494C56.1809 7.27152 56.1809 8.44948 55.4572 9.17606L28.2812 36.4569C27.918 36.8188 27.4439 37 26.9694 37Z" fill="#41A239"/>
</svg>
